<svg xmlns="http://www.w3.org/2000/svg" viewBox="0 0 324.577 328.630" fill="#89b4fa">
<g transform="translate(-15.095 337.670) scale(0.1 -0.1)">
<path d="M1542 3365 c-348 -53 -656 -210 -907 -460 -504 -505 -627 -1266 -309 -1910 30 -60 79 -144 107 -185 l53 -75 56 3 c83 4 274 46 346 75 120 48 162 92 162 166 0 51 -25 102 -85 172 -58 68 -84 121 -97 203 -10 58 -9 68 11 110 56 115 242 181 767 270 266 46 344 67 344 93 0 22 -76 50 -242 89 -84 19 -184 46 -222 59 -144 50 -198 121 -145 189 44 56 126 83 387 126 169 28 252 49 252 65 0 24 -32 52 -93 81 -82 38 -79 39 58 19 138 -21 232 -50 246 -77 20 -36 -8 -51 -261 -142 -41 -15 -97 -39 -124 -54 -130 -72 -78 -109 241 -177 417 -88 520 -117 596 -164 39 -25 47 -36 47 -60 0 -62 -67 -88 -410 -160 -277 -58 -334 -73 -417 -112 -76 -36 -103 -68 -103 -121 0 -81 51 -144 249 -311 209 -174 278 -280 289 -438 4 -67 1 -84 -21 -133 -63 -138 -225 -253 -567 -404 -39 -17 95 -15 232 3 364 48 683 207 943 470 127 129 218 256 300 420 75 151 115 269 147 427 33 164 33 463 0 626 -135 665 -624 1164 -1277 1302 -132 28 -418 36 -553 15z"/>
</g>
</svg>
