<svg xmlns="http://www.w3.org/2000/svg" viewBox="0 0 437.246 470.189" fill="currentColor" aria-label="Salmon">
<g transform="translate(-249.754 605.815) scale(0.1 -0.1)">
<path d="M2810 6048 c-135 -10 -160 -21 -160 -65 0 -15 18 -47 43 -76 74 -89 353 -494 345 -502 -4 -4 -189 56 -238 78 -75 32 -227 164 -242 208 -4 11 -9 11 -31 -4 -37 -24 -39 -62 -7 -107 10 -14 70 -127 134 -253 132 -259 202 -377 292 -494 85 -108 132 -148 239 -198 321 -151 644 -184 899 -91 160 58 294 174 363 316 58 118 77 214 71 353 -6 127 -30 234 -83 358 -34 81 -34 82 -9 58 68 -63 154 -211 196 -335 19 -57 23 -90 23 -195 l0 -126 102 -48 c140 -65 349 -191 477 -286 536 -403 833 -977 839 -1624 1 -153 -10 -318 -22 -310 -5 2 -11 51 -14 108 -13 209 -77 487 -162 697 -211 524 -607 958 -1150 1259 -60 34 -112 61 -115 61 -3 0 -16 -21 -30 -47 -14 -27 -61 -84 -105 -128 -63 -63 -100 -90 -173 -127 l-92 -47 120 -71 c304 -180 625 -299 743 -276 25 5 28 4 17 -9 -16 -19 -151 -105 -217 -139 -86 -43 -203 -77 -288 -83 -91 -6 -165 10 -248 55 -67 36 -165 144 -205 224 -34 69 -72 201 -72 250 0 15 -2 28 -5 28 -3 0 -32 -9 -64 -20 -97 -32 -237 -44 -365 -31 -107 11 -259 45 -340 77 l-38 15 6 -28 c13 -53 81 -187 122 -240 50 -64 115 -117 209 -169 82 -45 149 -104 174 -152 14 -28 16 -44 8 -100 -5 -37 -10 -143 -10 -237 -2 -137 1 -181 16 -227 24 -79 54 -112 102 -112 32 0 44 6 71 38 36 41 83 161 104 265 l14 65 -55 49 c-73 68 -32 41 206 -131 695 -504 873 -670 932 -871 22 -78 14 -173 -22 -240 -46 -83 -51 -82 -51 17 1 48 -5 110 -13 137 -30 106 -119 251 -204 334 l-35 33 -30 -33 c-30 -33 -32 -34 -109 -34 -43 0 -145 6 -226 14 -160 15 -257 10 -294 -14 -55 -37 -8 -94 134 -163 l92 -44 122 36 c68 19 124 34 127 32 8 -9 -104 -88 -178 -125 -113 -57 -206 -75 -344 -68 -127 6 -237 32 -661 157 -362 106 -465 131 -560 137 -66 5 -83 3 -94 -10 -36 -44 44 -150 341 -454 125 -127 234 -245 242 -262 36 -68 10 -153 -136 -453 -63 -132 -111 -241 -111 -260 -2 -32 0 -33 33 -31 97 5 411 145 591 264 96 64 269 225 269 250 0 8 -34 37 -76 64 -195 127 -270 290 -199 432 27 53 66 98 51 58 -70 -188 9 -364 209 -460 l72 -35 92 54 c130 77 282 136 351 136 15 0 62 24 107 54 107 70 190 94 268 77 30 -7 55 -16 55 -20 0 -5 -22 -11 -49 -15 -74 -10 -184 -51 -244 -90 -57 -38 -139 -139 -158 -195 -9 -27 -8 -36 4 -48 20 -20 77 -10 114 21 47 38 60 38 142 2 106 -48 182 -61 256 -46 48 10 66 20 106 60 31 31 54 66 66 100 11 32 26 56 38 60 11 5 70 17 130 29 339 64 609 212 767 421 206 271 256 660 163 1261 -13 86 -27 170 -31 185 -4 16 -4 26 0 22 11 -9 80 -255 111 -393 15 -66 30 -169 34 -230 l6 -110 40 60 c62 95 131 233 160 320 28 81 29 117 9 253 -8 55 17 89 125 171 91 70 131 114 131 145 0 13 -22 52 -49 87 -157 208 -376 305 -787 349 l-111 12 -37 64 c-145 247 -424 541 -711 746 -459 329 -1016 524 -1650 578 -144 12 -542 11 -715 -2z m798 -294 c26 -30 27 -45 7 -84 -28 -55 -100 -49 -134 11 -12 22 -12 29 0 54 16 34 55 57 84 49 11 -3 30 -17 43 -30z"/>
</g>
</svg>
